<svg width="387" height="151" xmlns="http://www.w3.org/2000/svg"><g fill="#000" fill-rule="evenodd"><path d="M0 55.78C0 29.061 11.339 11.822 34.017 4.063 41.884 1.354 51.372 0 62.479 0H70v112H0V55.78zM88 38h62v112H88zM173.469 118.102h14.46v16.054l-14.46-16.054zm-15.305 9.421h-.14c0-3.218.874-5.593 2.624-7.125 1.75-1.53 4.446-2.296 8.086-2.296l19.196 23.296c0 3.094-.836 5.305-2.508 6.633-1.625 1.297-4.281 1.946-7.969 1.946l-19.289-22.454zm-.07 6.329L172.016 150h-13.922v-16.148zM205.602 150c-7.735 0-11.602-3.531-11.602-10.594v-13.172l9.914-6.492h3.516V150h-1.828zm5.226-23.906h11.227v7.851h-11.227v-7.851zm.024 13.898h13.007v2.063c0 2.656-.812 4.617-2.437 5.882-1.766 1.376-4.617 2.063-8.555 2.063h-2.015v-10.008zm35.93-13.898h13.03V150h-13.03v-23.906zm-16.829 0h12.961V150h-2.11c-5.75 0-9.179-1.953-10.288-5.86-.375-1.265-.563-2.726-.563-4.382v-13.664zm53.32-11.977h12.493V150h-12.493v-35.883zm-17.367 24.211c0-1.719.227-3.316.68-4.793.453-1.476 1.156-2.77 2.11-3.879 2.062-2.375 5.015-3.562 8.859-3.562h1.804V150h-1.218c-3.938 0-6.985-1.078-9.141-3.234-2.063-2.063-3.094-4.875-3.094-8.438zm43.242-18.656c-5.171 0-7.757-1.617-7.757-4.852 0-1.656.617-2.847 1.851-3.574 1.235-.726 3.117-1.09 5.649-1.09 2.53 0 4.398.364 5.601 1.09 1.203.727 1.805 1.922 1.805 3.586s-.559 2.887-1.676 3.668c-1.117.781-2.941 1.172-5.473 1.172zm-6.445 6.445h12.61V150h-12.61v-23.883zm36.047-.023h1.805c3.843 0 6.797 1.187 8.86 3.562 1.858 2.157 2.788 5.016 2.788 8.578 0 3.625-1.031 6.47-3.094 8.532-2.156 2.156-5.203 3.234-9.14 3.234h-1.219v-23.906zm-17.25 12.234c0-1.719.227-3.316.68-4.793.453-1.476 1.156-2.77 2.11-3.879 2.062-2.375 5.015-3.562 8.858-3.562h1.805V150h-1.219c-3.937 0-6.984-1.078-9.14-3.234-2.063-2.063-3.094-4.875-3.094-8.438zm38.695-3.234a6.039 6.039 0 0 1-.117-.61l-.094-.656a12.681 12.681 0 0 1-.093-1.652c0-.633.144-1.363.433-2.192a5.28 5.28 0 0 1 1.418-2.156c1.406-1.312 3.578-1.969 6.516-1.969l17.414 15.305c.156.563.234 1.309.234 2.238a7.5 7.5 0 0 1-.469 2.649 5.38 5.38 0 0 1-1.5 2.168c-1.468 1.344-3.609 2.015-6.421 2.015l-17.157-15.14h-.164zm25.875-9c.47.719.703 1.703.703 2.953 0 2.312-.867 4.039-2.601 5.18l-9.399-8.133h11.297zM359.516 150c-.47-.719-.704-1.703-.704-2.953 0-2.297.86-4.016 2.579-5.156l9.421 8.109h-11.296zM193.906 60.055h12.961v21.703c0 3.453-.789 5.992-2.367 7.617-1.734 1.75-4.57 2.625-8.508 2.625h-2.086V60.055zm-34.781 0h12.96V92H170c-5.766 0-9.203-1.953-10.313-5.86-.375-1.265-.562-2.726-.562-4.382V60.055zm17.367.023h13.031v31.945h-13.03V60.078zm54.469 8.016h12.937V92h-1.476c-4.063 0-6.984-.71-8.766-2.133-1.797-1.437-2.695-3.812-2.695-7.125V68.094zm-16.922 12.234c0-1.719.227-3.316.68-4.793.453-1.476 1.156-2.77 2.11-3.879 2.062-2.375 5.015-3.562 8.858-3.562h1.805V92h-1.219c-3.937 0-6.984-1.078-9.14-3.234-2.063-2.063-3.094-4.875-3.094-8.438zm52.922-2.297c0-3.5.89-6.031 2.672-7.594 1.828-1.562 4.758-2.343 8.789-2.343h1.43v8.86c0 7.265-2.079 11.921-6.235 13.968-1.453.719-3.195 1.078-5.226 1.078h-1.43V78.031zM261.43 92c-3.922 0-6.844-1.367-8.766-4.102-1.781-2.53-2.672-6.18-2.672-10.945v-8.86h1.43c4.031 0 6.96.782 8.789 2.344 1.781 1.563 2.672 4.094 2.672 7.594V92h-1.453zm41.414-23.906h1.547c5.906 0 9.507 2 10.804 6 .422 1.328.633 2.867.633 4.617v2.578h-12.984V68.094zm-16.922 12.234c0-1.719.226-3.316.68-4.793.453-1.476 1.156-2.77 2.109-3.879 2.062-2.375 5.016-3.562 8.86-3.562h1.804V92h-1.219c-3.937 0-6.984-1.078-9.14-3.234-2.063-2.063-3.094-4.875-3.094-8.438zm16.922 5.555h11.719v.656c0 1.453-.524 2.68-1.57 3.68C311.71 91.406 309.89 92 307.53 92h-4.687v-6.117zM185.844.102h10.5v13.242h-2.625c-1.719 0-2.985-.184-3.797-.551-.813-.367-1.45-.781-1.91-1.242-.461-.461-.856-1.067-1.184-1.817-.656-1.53-.984-3.656-.984-6.375V.102zm-15.164 0h12.61V32h-12.61V.102zm-13.125 0h10.5v3.257c0 4.016-.727 6.75-2.18 8.204-1.188 1.187-3.086 1.78-5.695 1.78h-2.625V.103zm44.437 0h12.61v15.96h4.57V.102h12.61v31.851h-12.61V19.602h-4.57v12.351h-12.61V.102z"/></g></svg>