<?xml version="1.0" encoding="utf-8"?>
<svg xmlns="http://www.w3.org/2000/svg">
<symbol id="arrow-left" viewBox="0 0 325 467"><path d="M97 .5c-3.167 106.167 37.5 347.6 225.5 464-208 0-463 48.5-225.5-464z"/>
</symbol>
<symbol id="arrow-right" viewBox="0 0 324 466"><path d="M227.958 465.728c3.166-106.166-37.5-347.6-225.5-464 208 0 463-48.5 225.5 464z"/>
</symbol>
<symbol id="budbot" viewBox="0 0 180 180"><defs><path id="a" d="M0 6c0-3.3 2.7-6 6-6h168c3.3 0 6 2.7 6 6v168c0 3.3-2.7 6-6 6H6c-3.3 0-6-2.7-6-6V6z"/></defs><clipPath id="b"><use xlink:href="#a" overflow="visible"/></clipPath><g clip-path="url(#b)"><defs><path id="c" d="M-310-210h800v600h-800z"/></defs><clipPath id="d"><use xlink:href="#c" overflow="visible"/></clipPath><path clip-path="url(#d)" fill="#d0d0d0" d="M-5-5h190v190H-5z"/></g><defs><path id="e" d="M0 6c0-3.3 2.7-6 6-6h147.8c3.3 0 6 2.7 6 6v168c0 3.3-2.7 6-6 6H6c-3.3 0-6-2.7-6-6V6z"/></defs><clipPath id="f"><use xlink:href="#e" overflow="visible"/></clipPath><g clip-path="url(#f)"><defs><path id="g" d="M-310-210h800v600h-800z"/></defs><clipPath id="h"><use xlink:href="#g" overflow="visible"/></clipPath><path clip-path="url(#h)" fill="#ededed" d="M-5-5h169.8v190H-5z"/></g><defs><path id="i" d="M18.2 6c0-3.3 2.7-6 6-6h129.6c3.3 0 6 2.7 6 6v168c0 3.3-2.7 6-6 6H24.2c-3.3 0-6-2.7-6-6V6z"/></defs><clipPath id="j"><use xlink:href="#i" overflow="visible"/></clipPath><g clip-path="url(#j)"><defs><path id="k" d="M-310-210h800v600h-800z"/></defs><clipPath id="l"><use xlink:href="#k" overflow="visible"/></clipPath><path clip-path="url(#l)" fill="#e0e1e4" d="M13.2-5h151.6v190H13.2z"/></g><defs><path id="m" d="M0 6c0-3.3 2.7-6 6-6h168c3.3 0 6 2.7 6 6v168c0 3.3-2.7 6-6 6H6c-3.3 0-6-2.7-6-6V6z"/></defs><clipPath id="n"><use xlink:href="#m" overflow="visible"/></clipPath><g clip-path="url(#n)"><defs><path id="o" d="M-310-210h800v600h-800z"/></defs><clipPath id="p"><use xlink:href="#o" overflow="visible"/></clipPath><path d="M0 6c0-3.3 2.7-6 6-6h168c3.3 0 6 2.7 6 6v168c0 3.3-2.7 6-6 6H6c-3.3 0-6-2.7-6-6V6z" clip-path="url(#p)" fill="none" stroke="#a8a8a8" stroke-width="16" stroke-linejoin="bevel" stroke-miterlimit="10"/></g><defs><path id="q" d="M32 55v18c0 5.5 4.5 10 10 10h18c5.5 0 10-4.5 10-10V55c0-5.5-4.5-10-10-10H42c-5.5 0-10 4.5-10 10zm8 0c0-1.1.9-2 2-2h18c1.1 0 2 .9 2 2v18c0 1.1-.9 2-2 2H42c-1.1 0-2-.9-2-2V55zM12 25h78v78H12V25z"/></defs><clipPath id="r"><use xlink:href="#q" overflow="visible"/></clipPath><g clip-path="url(#r)"><defs><path id="s" d="M36 55c0-3.3 2.7-6 6-6h18c3.3 0 6 2.7 6 6v18c0 3.3-2.7 6-6 6H42c-3.3 0-6-2.7-6-6V55z"/></defs><clipPath id="t"><use xlink:href="#s" overflow="visible"/></clipPath><g clip-path="url(#t)"><defs><path id="u" d="M-310-210h800v600h-800z"/></defs><clipPath id="v"><use xlink:href="#u" overflow="visible"/></clipPath><path d="M36 55c0-3.3 2.7-6 6-6h18c3.3 0 6 2.7 6 6v18c0 3.3-2.7 6-6 6H42c-3.3 0-6-2.7-6-6V55z" clip-path="url(#v)" fill-rule="evenodd" clip-rule="evenodd" fill="#ffd9d9"/></g></g><g><defs><path id="w" d="M36 55c0-3.3 2.7-6 6-6h18c3.3 0 6 2.7 6 6v18c0 3.3-2.7 6-6 6H42c-3.3 0-6-2.7-6-6V55z"/></defs><clipPath id="x"><use xlink:href="#w" overflow="visible"/></clipPath><g clip-path="url(#x)"><defs><path id="y" d="M-310-210h800v600h-800z"/></defs><clipPath id="z"><use xlink:href="#y" overflow="visible"/></clipPath><path d="M36 55c0-3.3 2.7-6 6-6h18c3.3 0 6 2.7 6 6v18c0 3.3-2.7 6-6 6H42c-3.3 0-6-2.7-6-6V55z" clip-path="url(#z)" fill="none" stroke="#a8a8a8" stroke-width="16" stroke-linejoin="bevel" stroke-miterlimit="10"/></g></g><g><defs><path id="A" d="M110 55v18c0 5.5 4.5 10 10 10h18c5.5 0 10-4.5 10-10V55c0-5.5-4.5-10-10-10h-18c-5.5 0-10 4.5-10 10zm8 0c0-1.1.9-2 2-2h18c1.1 0 2 .9 2 2v18c0 1.1-.9 2-2 2h-18c-1.1 0-2-.9-2-2V55zM90 25h78v78H90V25z"/></defs><clipPath id="B"><use xlink:href="#A" overflow="visible"/></clipPath><g clip-path="url(#B)"><defs><path id="C" d="M114 55c0-3.3 2.7-6 6-6h18c3.3 0 6 2.7 6 6v18c0 3.3-2.7 6-6 6h-18c-3.3 0-6-2.7-6-6V55z"/></defs><clipPath id="D"><use xlink:href="#C" overflow="visible"/></clipPath><g clip-path="url(#D)"><defs><path id="E" d="M-310-210h800v600h-800z"/></defs><clipPath id="F"><use xlink:href="#E" overflow="visible"/></clipPath><path d="M114 55c0-3.3 2.7-6 6-6h18c3.3 0 6 2.7 6 6v18c0 3.3-2.7 6-6 6h-18c-3.3 0-6-2.7-6-6V55z" clip-path="url(#F)" fill-rule="evenodd" clip-rule="evenodd" fill="#ffd9d9"/></g></g></g><g><defs><path id="G" d="M114 55c0-3.3 2.7-6 6-6h18c3.3 0 6 2.7 6 6v18c0 3.3-2.7 6-6 6h-18c-3.3 0-6-2.7-6-6V55z"/></defs><clipPath id="H"><use xlink:href="#G" overflow="visible"/></clipPath><g clip-path="url(#H)"><defs><path id="I" d="M-310-210h800v600h-800z"/></defs><clipPath id="J"><use xlink:href="#I" overflow="visible"/></clipPath><path d="M114 55c0-3.3 2.7-6 6-6h18c3.3 0 6 2.7 6 6v18c0 3.3-2.7 6-6 6h-18c-3.3 0-6-2.7-6-6V55z" clip-path="url(#J)" fill="none" stroke="#a8a8a8" stroke-width="16" stroke-linejoin="bevel" stroke-miterlimit="10"/></g></g><g><defs><path id="K" d="M109 131h4c.6 0 1-.5 1-1v-9H67.5v9c0 .5.4 1 1 1H109z"/></defs><clipPath id="L"><use xlink:href="#K" overflow="visible"/></clipPath><g clip-path="url(#L)"><defs><path id="M" d="M-310-210h800v600h-800z"/></defs><clipPath id="N"><use xlink:href="#M" overflow="visible"/></clipPath><path clip-path="url(#N)" fill="#cbcbcb" d="M62.5 116H119v20H62.5z"/></g></g><g><defs><path id="O" d="M80 91.8V96h10V57c0-.6-.5-1-1-1h-8c-.5 0-1 .4-1 1V91.8z"/></defs><clipPath id="P"><use xlink:href="#O" overflow="visible"/></clipPath><g clip-path="url(#P)"><defs><path id="Q" d="M-310-210h800v600h-800z"/></defs><clipPath id="R"><use xlink:href="#Q" overflow="visible"/></clipPath><path clip-path="url(#R)" fill="#cbcbcb" d="M75 51h20v50H75z"/></g></g><g><defs><path id="S" d="M78 86.5h-4c-.6 0-1 .5-1 1v8c0 .5.4 1 1 1h34c.6 0 1-.5 1-1v-8c0-.5-.4-1-1-1H78z"/></defs><clipPath id="T"><use xlink:href="#S" overflow="visible"/></clipPath><g clip-path="url(#T)"><defs><path id="U" d="M-310-210h800v600h-800z"/></defs><clipPath id="V"><use xlink:href="#U" overflow="visible"/></clipPath><path clip-path="url(#V)" fill="#a8a8a8" d="M68 81.5h46v20H68z"/></g></g><g><defs><path id="W" d="M86 91.8V96h10V57c0-.6-.5-1-1-1h-8c-.5 0-1 .4-1 1V91.8z"/></defs><clipPath id="X"><use xlink:href="#W" overflow="visible"/></clipPath><g clip-path="url(#X)"><defs><path id="Y" d="M-310-210h800v600h-800z"/></defs><clipPath id="Z"><use xlink:href="#Y" overflow="visible"/></clipPath><path clip-path="url(#Z)" fill="#a8a8a8" d="M81 51h20v50H81z"/></g></g><g><defs><path id="aa" d="M115.2 125.3h4c.6 0 1-.5 1-1v-9H59.8v9c0 .5.4 1 1 1h54.4z"/></defs><clipPath id="ab"><use xlink:href="#aa" overflow="visible"/></clipPath><g clip-path="url(#ab)"><defs><path id="ac" d="M-310-210h800v600h-800z"/></defs><clipPath id="ad"><use xlink:href="#ac" overflow="visible"/></clipPath><path clip-path="url(#ad)" fill="#a8a8a8" d="M54.8 110.3h70.4v20H54.8z"/></g></g><g><defs><path id="ae" d="M125 120.3h4c.6 0 1-.5 1-1v-8c0-.5-.4-1-1-1h-9.7c-.6 0-1 .5-1 1v9h6.7z"/></defs><clipPath id="af"><use xlink:href="#ae" overflow="visible"/></clipPath><g clip-path="url(#af)"><defs><path id="ag" d="M-310-210h800v600h-800z"/></defs><clipPath id="ah"><use xlink:href="#ag" overflow="visible"/></clipPath><path clip-path="url(#ah)" fill="#a8a8a8" d="M113.3 105.3H135v20h-21.7z"/></g></g><g><defs><path id="ai" d="M55.7 120.3h5v-9c0-.5-.4-1-1-1H50c-.6 0-1 .5-1 1v8c0 .5.4 1 1 1h5.7z"/></defs><clipPath id="aj"><use xlink:href="#ai" overflow="visible"/></clipPath><g clip-path="url(#aj)"><defs><path id="ak" d="M-310-210h800v600h-800z"/></defs><clipPath id="al"><use xlink:href="#ak" overflow="visible"/></clipPath><path clip-path="url(#al)" fill="#a8a8a8" d="M44 105.3h21.7v20H44z"/></g></g>
</symbol>
<symbol id="hackital"><g fill="none" fill-rule="evenodd"><path fill="#000" d="M863 1420V724h183.798v254.758h255.896V724H1487v696h-184.306v-272.592h-255.896V1420z"/><path fill="#ED2C3E" fill-rule="nonzero" d="M863 92.167V528h173V5H863zM1298 86.717V523h173V0h-173zM435 92.077V1420h173V5H435zM0 92.077V1420h173V5H0z"/></g>
</symbol>
<symbol id="sprite">
<symbol id="arrow-left" viewBox="0 0 325 467"><path d="M97 .5c-3.167 106.167 37.5 347.6 225.5 464-208 0-463 48.5-225.5-464z"/>
</symbol>
<symbol id="arrow-right" viewBox="0 0 324 466"><path d="M227.958 465.728c3.166-106.166-37.5-347.6-225.5-464 208 0 463-48.5 225.5 464z"/>
</symbol>

</symbol></svg>