<?xml version="1.0" encoding="utf-8"?>
<svg xmlns="http://www.w3.org/2000/svg">
<symbol id="arrow-left" viewBox="0 0 325 467"><path d="M97 .5c-3.167 106.167 37.5 347.6 225.5 464-208 0-463 48.5-225.5-464z"/>
</symbol>
<symbol id="arrow-right" viewBox="0 0 324 466"><path d="M227.958 465.728c3.166-106.166-37.5-347.6-225.5-464 208 0 463-48.5 225.5 464z"/>
</symbol>
<symbol id="hackital"><g fill="none" fill-rule="evenodd"><path fill="#000" d="M863 1420V724h183.798v254.758h255.896V724H1487v696h-184.306v-272.592h-255.896V1420z"/><path fill="#ED2C3E" fill-rule="nonzero" d="M863 92.167V528h173V5H863zM1298 86.717V523h173V0h-173zM435 92.077V1420h173V5H435zM0 92.077V1420h173V5H0z"/></g>
</symbol>
<symbol id="sprite">
<symbol id="arrow-left" viewBox="0 0 325 467"><path d="M97 .5c-3.167 106.167 37.5 347.6 225.5 464-208 0-463 48.5-225.5-464z"/>
</symbol>
<symbol id="arrow-right" viewBox="0 0 324 466"><path d="M227.958 465.728c3.166-106.166-37.5-347.6-225.5-464 208 0 463-48.5 225.5 464z"/>
</symbol>
<symbol id="hackital"><g fill="none" fill-rule="evenodd"><path fill="#000" d="M863 1420V724h183.798v254.758h255.896V724H1487v696h-184.306v-272.592h-255.896V1420z"/><path fill="#ED2C3E" fill-rule="nonzero" d="M863 92.167V528h173V5H863zM1298 86.717V523h173V0h-173zM435 92.077V1420h173V5H435zM0 92.077V1420h173V5H0z"/></g>
</symbol>
<symbol id="sprite">
<symbol id="arrow-left" viewBox="0 0 325 467"><path d="M97 .5c-3.167 106.167 37.5 347.6 225.5 464-208 0-463 48.5-225.5-464z"/>
</symbol>
<symbol id="arrow-right" viewBox="0 0 324 466"><path d="M227.958 465.728c3.166-106.166-37.5-347.6-225.5-464 208 0 463-48.5 225.5 464z"/>
</symbol>
<symbol id="hackital"><g fill="none" fill-rule="evenodd"><path fill="#000" d="M863 1420V724h183.798v254.758h255.896V724H1487v696h-184.306v-272.592h-255.896V1420z"/><path fill="#ED2C3E" fill-rule="nonzero" d="M863 92.167V528h173V5H863zM1298 86.717V523h173V0h-173zM435 92.077V1420h173V5H435zM0 92.077V1420h173V5H0z"/></g>
</symbol>
<symbol id="sprite">
<symbol id="arrow-left" viewBox="0 0 325 467"><path d="M97 .5c-3.167 106.167 37.5 347.6 225.5 464-208 0-463 48.5-225.5-464z"/>
</symbol>
<symbol id="arrow-right" viewBox="0 0 324 466"><path d="M227.958 465.728c3.166-106.166-37.5-347.6-225.5-464 208 0 463-48.5 225.5 464z"/>
</symbol>
<symbol id="hackital"><g fill="none" fill-rule="evenodd"><path fill="#000" d="M863 1420V724h183.798v254.758h255.896V724H1487v696h-184.306v-272.592h-255.896V1420z"/><path fill="#ED2C3E" fill-rule="nonzero" d="M863 92.167V528h173V5H863zM1298 86.717V523h173V0h-173zM435 92.077V1420h173V5H435zM0 92.077V1420h173V5H0z"/></g>
</symbol>
<symbol id="sprite">
<symbol id="arrow-left" viewBox="0 0 325 467"><path d="M97 .5c-3.167 106.167 37.5 347.6 225.5 464-208 0-463 48.5-225.5-464z"/>
</symbol>
<symbol id="arrow-right" viewBox="0 0 324 466"><path d="M227.958 465.728c3.166-106.166-37.5-347.6-225.5-464 208 0 463-48.5 225.5 464z"/>
</symbol>
<symbol id="hackital"><g fill="none" fill-rule="evenodd"><path fill="#000" d="M863 1420V724h183.798v254.758h255.896V724H1487v696h-184.306v-272.592h-255.896V1420z"/><path fill="#ED2C3E" fill-rule="nonzero" d="M863 92.167V528h173V5H863zM1298 86.717V523h173V0h-173zM435 92.077V1420h173V5H435zM0 92.077V1420h173V5H0z"/></g>
</symbol>
<symbol id="sprite">
<symbol id="arrow-left" viewBox="0 0 325 467"><path d="M97 .5c-3.167 106.167 37.5 347.6 225.5 464-208 0-463 48.5-225.5-464z"/>
</symbol>
<symbol id="arrow-right" viewBox="0 0 324 466"><path d="M227.958 465.728c3.166-106.166-37.5-347.6-225.5-464 208 0 463-48.5 225.5 464z"/>
</symbol>
<symbol id="hackital"><g fill="none" fill-rule="evenodd"><path fill="#000" d="M863 1420V724h183.798v254.758h255.896V724H1487v696h-184.306v-272.592h-255.896V1420z"/><path fill="#ED2C3E" fill-rule="nonzero" d="M863 92.167V528h173V5H863zM1298 86.717V523h173V0h-173zM435 92.077V1420h173V5H435zM0 92.077V1420h173V5H0z"/></g>
</symbol>
<symbol id="sprite">
<symbol id="arrow-left" viewBox="0 0 325 467"><path d="M97 .5c-3.167 106.167 37.5 347.6 225.5 464-208 0-463 48.5-225.5-464z"/>
</symbol>
<symbol id="arrow-right" viewBox="0 0 324 466"><path d="M227.958 465.728c3.166-106.166-37.5-347.6-225.5-464 208 0 463-48.5 225.5 464z"/>
</symbol>
<symbol id="hackital"><g fill="none" fill-rule="evenodd"><path fill="#FFF" d="M863 1420V724h183.798v254.758h255.896V724H1487v696h-184.306v-272.592h-255.896V1420z"/><path fill="#ED2C3E" fill-rule="nonzero" d="M863 92.167V528h173V5H863zM1298 86.717V523h173V0h-173zM435 92.077V1420h173V5H435zM0 92.077V1420h173V5H0z"/></g>
</symbol>
<symbol id="sprite">
<symbol id="arrow-left" viewBox="0 0 325 467"><path d="M97 .5c-3.167 106.167 37.5 347.6 225.5 464-208 0-463 48.5-225.5-464z"/>
</symbol>
<symbol id="arrow-right" viewBox="0 0 324 466"><path d="M227.958 465.728c3.166-106.166-37.5-347.6-225.5-464 208 0 463-48.5 225.5 464z"/>
</symbol>
<symbol id="hackital"><g fill="none" fill-rule="evenodd"><path fill="#FFF" d="M863 1420V724h183.798v254.758h255.896V724H1487v696h-184.306v-272.592h-255.896V1420z"/><path fill="#ED2C3E" fill-rule="nonzero" d="M863 92.167V528h173V5H863zM1298 86.717V523h173V0h-173zM435 92.077V1420h173V5H435zM0 92.077V1420h173V5H0z"/></g>
</symbol>
<symbol id="sprite">
<symbol id="arrow-left" viewBox="0 0 325 467"><path d="M97 .5c-3.167 106.167 37.5 347.6 225.5 464-208 0-463 48.5-225.5-464z"/>
</symbol>
<symbol id="arrow-right" viewBox="0 0 324 466"><path d="M227.958 465.728c3.166-106.166-37.5-347.6-225.5-464 208 0 463-48.5 225.5 464z"/>
</symbol>
<symbol id="hackital"><g fill="none" fill-rule="evenodd"><path fill="#FFF" d="M863 1420V724h183.798v254.758h255.896V724H1487v696h-184.306v-272.592h-255.896V1420z"/><path fill="#ED2C3E" fill-rule="nonzero" d="M863 92.167V528h173V5H863zM1298 86.717V523h173V0h-173zM435 92.077V1420h173V5H435zM0 92.077V1420h173V5H0z"/></g>
</symbol>
<symbol id="sprite">
<symbol id="arrow-left" viewBox="0 0 325 467"><path d="M97 .5c-3.167 106.167 37.5 347.6 225.5 464-208 0-463 48.5-225.5-464z"/>
</symbol>
<symbol id="arrow-right" viewBox="0 0 324 466"><path d="M227.958 465.728c3.166-106.166-37.5-347.6-225.5-464 208 0 463-48.5 225.5 464z"/>
</symbol>
<symbol id="hackital"><g fill="none" fill-rule="evenodd"><path fill="#FFF" d="M863 1420V724h183.798v254.758h255.896V724H1487v696h-184.306v-272.592h-255.896V1420z"/><path fill="#ED2C3E" fill-rule="nonzero" d="M863 92.167V528h173V5H863zM1298 86.717V523h173V0h-173zM435 92.077V1420h173V5H435zM0 92.077V1420h173V5H0z"/></g>
</symbol>
<symbol id="sprite">
<symbol id="arrow-left" viewBox="0 0 325 467"><path d="M97 .5c-3.167 106.167 37.5 347.6 225.5 464-208 0-463 48.5-225.5-464z"/>
</symbol>
<symbol id="arrow-right" viewBox="0 0 324 466"><path d="M227.958 465.728c3.166-106.166-37.5-347.6-225.5-464 208 0 463-48.5 225.5 464z"/>
</symbol>
<symbol id="hackital"><g fill="none" fill-rule="evenodd"><path fill="#FFF" d="M863 1420V724h183.798v254.758h255.896V724H1487v696h-184.306v-272.592h-255.896V1420z"/><path fill="#ED2C3E" fill-rule="nonzero" d="M863 92.167V528h173V5H863zM1298 86.717V523h173V0h-173zM435 92.077V1420h173V5H435zM0 92.077V1420h173V5H0z"/></g>
</symbol>
<symbol id="sprite">
<symbol id="arrow-left" viewBox="0 0 325 467"><path d="M97 .5c-3.167 106.167 37.5 347.6 225.5 464-208 0-463 48.5-225.5-464z"/>
</symbol>
<symbol id="arrow-right" viewBox="0 0 324 466"><path d="M227.958 465.728c3.166-106.166-37.5-347.6-225.5-464 208 0 463-48.5 225.5 464z"/>
</symbol>
<symbol id="sprite">
<symbol id="arrow-left" viewBox="0 0 325 467"><path d="M97 .5c-3.167 106.167 37.5 347.6 225.5 464-208 0-463 48.5-225.5-464z"/>
</symbol>
<symbol id="arrow-right" viewBox="0 0 324 466"><path d="M227.958 465.728c3.166-106.166-37.5-347.6-225.5-464 208 0 463-48.5 225.5 464z"/>
</symbol>
<symbol id="sprite">
<symbol id="arrow-left" viewBox="0 0 325 467"><path d="M97 .5c-3.167 106.167 37.5 347.6 225.5 464-208 0-463 48.5-225.5-464z"/>
</symbol>
<symbol id="arrow-right" viewBox="0 0 324 466"><path d="M227.958 465.728c3.166-106.166-37.5-347.6-225.5-464 208 0 463-48.5 225.5 464z"/>
</symbol>
<symbol id="sprite">
<symbol id="arrow-left" viewBox="0 0 325 467"><path d="M97 .5c-3.167 106.167 37.5 347.6 225.5 464-208 0-463 48.5-225.5-464z"/>
</symbol>
<symbol id="arrow-right" viewBox="0 0 324 466"><path d="M227.958 465.728c3.166-106.166-37.5-347.6-225.5-464 208 0 463-48.5 225.5 464z"/>
</symbol>
<symbol id="sprite">
<symbol id="arrow-left" viewBox="0 0 325 467"><path d="M97 .5c-3.167 106.167 37.5 347.6 225.5 464-208 0-463 48.5-225.5-464z"/>
</symbol>
<symbol id="arrow-right" viewBox="0 0 324 466"><path d="M227.958 465.728c3.166-106.166-37.5-347.6-225.5-464 208 0 463-48.5 225.5 464z"/>
</symbol>
<symbol id="sprite">
<symbol id="arrow-left" viewBox="0 0 325 467"><path d="M97 .5c-3.167 106.167 37.5 347.6 225.5 464-208 0-463 48.5-225.5-464z"/>
</symbol>
<symbol id="arrow-right" viewBox="0 0 324 466"><path d="M227.958 465.728c3.166-106.166-37.5-347.6-225.5-464 208 0 463-48.5 225.5 464z"/>
</symbol>
<symbol id="sprite">
<symbol id="arrow-left" viewBox="0 0 325 467"><path d="M97 .5c-3.167 106.167 37.5 347.6 225.5 464-208 0-463 48.5-225.5-464z"/>
</symbol>
<symbol id="arrow-right" viewBox="0 0 324 466"><path d="M227.958 465.728c3.166-106.166-37.5-347.6-225.5-464 208 0 463-48.5 225.5 464z"/>
</symbol>
<symbol id="sprite">
<symbol id="arrow-left" viewBox="0 0 325 467"><path d="M97 .5c-3.167 106.167 37.5 347.6 225.5 464-208 0-463 48.5-225.5-464z"/>
</symbol>
<symbol id="arrow-right" viewBox="0 0 324 466"><path d="M227.958 465.728c3.166-106.166-37.5-347.6-225.5-464 208 0 463-48.5 225.5 464z"/>
</symbol>
<symbol id="sprite">
<symbol id="arrow-left" viewBox="0 0 325 467"><path d="M97 .5c-3.167 106.167 37.5 347.6 225.5 464-208 0-463 48.5-225.5-464z"/>
</symbol>
<symbol id="arrow-right" viewBox="0 0 324 466"><path d="M227.958 465.728c3.166-106.166-37.5-347.6-225.5-464 208 0 463-48.5 225.5 464z"/>
</symbol>
<symbol id="sprite">
<symbol id="arrow-left" viewBox="0 0 325 467"><path d="M97 .5c-3.167 106.167 37.5 347.6 225.5 464-208 0-463 48.5-225.5-464z"/>
</symbol>
<symbol id="arrow-right" viewBox="0 0 324 466"><path d="M227.958 465.728c3.166-106.166-37.5-347.6-225.5-464 208 0 463-48.5 225.5 464z"/>
</symbol>
<symbol id="sprite">
<symbol id="arrow-left" viewBox="0 0 325 467"><path d="M97 .5c-3.167 106.167 37.5 347.6 225.5 464-208 0-463 48.5-225.5-464z"/>
</symbol>
<symbol id="arrow-right" viewBox="0 0 324 466"><path d="M227.958 465.728c3.166-106.166-37.5-347.6-225.5-464 208 0 463-48.5 225.5 464z"/>
</symbol>
<symbol id="sprite">
<symbol id="arrow-left" viewBox="0 0 325 467"><path d="M97 .5c-3.167 106.167 37.5 347.6 225.5 464-208 0-463 48.5-225.5-464z"/>
</symbol>
<symbol id="arrow-right" viewBox="0 0 324 466"><path d="M227.958 465.728c3.166-106.166-37.5-347.6-225.5-464 208 0 463-48.5 225.5 464z"/>
</symbol>
<symbol id="sprite">
<symbol id="arrow-left" viewBox="0 0 325 467"><path d="M97 .5c-3.167 106.167 37.5 347.6 225.5 464-208 0-463 48.5-225.5-464z"/>
</symbol>
<symbol id="arrow-right" viewBox="0 0 324 466"><path d="M227.958 465.728c3.166-106.166-37.5-347.6-225.5-464 208 0 463-48.5 225.5 464z"/>
</symbol>
<symbol id="sprite">
<symbol id="arrow-left" viewBox="0 0 325 467"><path d="M97 .5c-3.167 106.167 37.5 347.6 225.5 464-208 0-463 48.5-225.5-464z"/>
</symbol>
<symbol id="arrow-right" viewBox="0 0 324 466"><path d="M227.958 465.728c3.166-106.166-37.5-347.6-225.5-464 208 0 463-48.5 225.5 464z"/>
</symbol>
<symbol id="sprite">
<symbol id="arrow-left" viewBox="0 0 325 467"><path d="M97 .5c-3.167 106.167 37.5 347.6 225.5 464-208 0-463 48.5-225.5-464z"/>
</symbol>
<symbol id="arrow-right" viewBox="0 0 324 466"><path d="M227.958 465.728c3.166-106.166-37.5-347.6-225.5-464 208 0 463-48.5 225.5 464z"/>
</symbol>
<symbol id="sprite">
<symbol id="arrow-left" viewBox="0 0 325 467"><path d="M97 .5c-3.167 106.167 37.5 347.6 225.5 464-208 0-463 48.5-225.5-464z"/>
</symbol>
<symbol id="arrow-right" viewBox="0 0 324 466"><path d="M227.958 465.728c3.166-106.166-37.5-347.6-225.5-464 208 0 463-48.5 225.5 464z"/>
</symbol>
<symbol id="sprite">
<symbol id="arrow-left" viewBox="0 0 325 467"><path d="M97 .5c-3.167 106.167 37.5 347.6 225.5 464-208 0-463 48.5-225.5-464z"/>
</symbol>
<symbol id="arrow-right" viewBox="0 0 324 466"><path d="M227.958 465.728c3.166-106.166-37.5-347.6-225.5-464 208 0 463-48.5 225.5 464z"/>
</symbol>
<symbol id="sprite">
<symbol id="arrow-left" viewBox="0 0 325 467"><path d="M97 .5c-3.167 106.167 37.5 347.6 225.5 464-208 0-463 48.5-225.5-464z"/>
</symbol>
<symbol id="arrow-right" viewBox="0 0 324 466"><path d="M227.958 465.728c3.166-106.166-37.5-347.6-225.5-464 208 0 463-48.5 225.5 464z"/>
</symbol>
<symbol id="sprite">
<symbol id="arrow-left" viewBox="0 0 325 467"><path d="M97 .5c-3.167 106.167 37.5 347.6 225.5 464-208 0-463 48.5-225.5-464z"/>
</symbol>
<symbol id="arrow-right" viewBox="0 0 324 466"><path d="M227.958 465.728c3.166-106.166-37.5-347.6-225.5-464 208 0 463-48.5 225.5 464z"/>
</symbol>
<symbol id="sprite">
<symbol id="arrow-left" viewBox="0 0 325 467"><path d="M97 .5c-3.167 106.167 37.5 347.6 225.5 464-208 0-463 48.5-225.5-464z"/>
</symbol>
<symbol id="arrow-right" viewBox="0 0 324 466"><path d="M227.958 465.728c3.166-106.166-37.5-347.6-225.5-464 208 0 463-48.5 225.5 464z" stroke="#000"/>
</symbol>
<symbol id="sprite">
<symbol id="arrow-left" viewBox="0 0 325 467"><path d="M97 .5c-3.167 106.167 37.5 347.6 225.5 464-208 0-463 48.5-225.5-464z" stroke="#000"/>
</symbol>
<symbol id="arrow-right" viewBox="0 0 324 466"><path d="M227.958 465.728c3.166-106.166-37.5-347.6-225.5-464 208 0 463-48.5 225.5 464z" stroke="#000"/>
</symbol>
</symbol>
</symbol>
</symbol>
</symbol>
</symbol>
</symbol>
</symbol>
</symbol>
</symbol>
</symbol>
</symbol>
</symbol>
</symbol>
</symbol>
</symbol>
</symbol>
</symbol>
</symbol>
</symbol>
</symbol>
</symbol>
</symbol>
</symbol>
</symbol>
</symbol>
</symbol>
</symbol>
</symbol>
</symbol>
</symbol>
</symbol></svg>